<svg width="18" height="18" viewBox="0 0 18 18" fill="none" xmlns="http://www.w3.org/2000/svg">
<path fill-rule="evenodd" clip-rule="evenodd" d="M2.25004 0H15.75C16.8152 0 17.6786 0.89543 17.6786 2V16C17.6786 17.1046 16.8152 18 15.75 18H2.25004C1.18492 18 0.321472 17.1046 0.321472 16V2C0.321472 0.89543 1.18492 0 2.25004 0ZM5.1429 15C5.40918 15 5.62504 14.7761 5.62504 14.5V7.5C5.62504 7.2239 5.40918 7 5.1429 7H3.69647C3.43019 7 3.21433 7.2239 3.21433 7.5V14.5C3.21433 14.7761 3.43019 15 3.69647 15H5.1429ZM4.41969 6C3.62084 6 2.97326 5.32843 2.97326 4.5C2.97326 3.67157 3.62084 3 4.41969 3C5.21853 3 5.86611 3.67157 5.86611 4.5C5.86611 5.32843 5.21853 6 4.41969 6ZM14.3036 15C14.5699 15 14.7858 14.7761 14.7858 14.5V9.9C14.8171 8.3108 13.6842 6.95452 12.1629 6.76C11.0993 6.65925 10.0688 7.1744 9.48219 8.1V7.5C9.48219 7.2239 9.26628 7 9.00004 7H7.55361C7.28737 7 7.07147 7.2239 7.07147 7.5V14.5C7.07147 14.7761 7.28737 15 7.55361 15H9.00004C9.26628 15 9.48219 14.7761 9.48219 14.5V10.75C9.48219 9.9216 10.1298 9.25 10.9286 9.25C11.7274 9.25 12.375 9.9216 12.375 10.75V14.5C12.375 14.7761 12.5909 15 12.8572 15H14.3036Z" fill="white"/>
</svg>
