<svg width="20" height="20" viewBox="0 0 20 20" fill="none" xmlns="http://www.w3.org/2000/svg">
<path fill-rule="evenodd" clip-rule="evenodd" d="M20 10C20 15.5225 15.6824 20 10.3572 20C5.03188 20 0.714294 15.5225 0.714294 10C0.714294 4.4775 5.03188 0 10.3572 0C15.6824 0 20 4.4775 20 10ZM10.7027 7.3825C9.76492 7.78667 7.89019 8.62417 5.07929 9.89417C4.62287 10.0825 4.3834 10.2667 4.36171 10.4467C4.32474 10.7517 4.69278 10.8717 5.1926 11.0342C5.2609 11.0567 5.33162 11.0792 5.40394 11.1042C5.89653 11.27 6.55867 11.4642 6.9026 11.4717C7.21519 11.4783 7.56394 11.345 7.94885 11.0717C10.5749 9.2325 11.9305 8.30333 12.0157 8.28333C12.076 8.26917 12.1596 8.25083 12.2158 8.30333C12.2721 8.355 12.2664 8.45333 12.2608 8.48C12.2238 8.64083 10.7822 10.0317 10.0349 10.7517C9.80188 10.9758 9.63715 11.135 9.6034 11.1717C9.52787 11.2525 9.45072 11.33 9.37679 11.4042C8.91876 11.8608 8.57644 12.2042 9.39608 12.7642C9.78983 13.0333 10.1048 13.2558 10.419 13.4775C10.7622 13.72 11.1045 13.9617 11.548 14.2633C11.6605 14.34 11.7682 14.4192 11.8735 14.4967C12.2729 14.7925 12.6321 15.0575 13.0756 15.0158C13.3328 14.9908 13.5996 14.74 13.7346 13.9908C14.0536 12.2192 14.682 8.3825 14.8274 6.80083C14.8363 6.66951 14.8309 6.53757 14.8113 6.4075C14.7997 6.30244 14.7503 6.20578 14.6731 6.13667C14.5582 6.03917 14.3798 6.01833 14.2995 6.02C13.9371 6.02667 13.381 6.2275 10.7027 7.3825Z" fill="white"/>
</svg>
