<svg width="18" height="20" viewBox="0 0 18 20" fill="none" xmlns="http://www.w3.org/2000/svg">
<path d="M17.018 8.19961C15.3597 8.20372 13.7421 7.6674 12.3936 6.66641V13.6477C12.3932 14.9407 12.0121 16.2027 11.3013 17.265C10.5905 18.3274 9.58395 19.1393 8.41616 19.5924C7.24838 20.0455 5.97506 20.118 4.76645 19.8003C3.55785 19.4826 2.47157 18.7899 1.65287 17.8147C0.834164 16.8395 0.322064 15.6283 0.185041 14.3431C0.048018 13.058 0.292603 11.76 0.886091 10.6229C1.47958 9.48578 2.39368 8.56366 3.50617 7.97983C4.61866 7.39601 5.87651 7.17832 7.11152 7.35586V10.8672C6.54638 10.6828 5.93951 10.6884 5.37759 10.8831C4.81568 11.0777 4.32744 11.4515 3.9826 11.9511C3.63777 12.4507 3.45397 13.0505 3.45746 13.6649C3.46095 14.2793 3.65155 14.8768 4.00203 15.3721C4.35252 15.8675 4.84497 16.2353 5.40906 16.4231C5.97315 16.6109 6.58004 16.609 7.14305 16.4178C7.70606 16.2265 8.19641 15.8557 8.54406 15.3582C8.89172 14.8607 9.0789 14.262 9.07889 13.6477V0H12.3936C12.3913 0.290289 12.4148 0.580182 12.4637 0.866016C12.5789 1.50409 12.8184 2.1111 13.1675 2.6499C13.5167 3.1887 13.9681 3.64796 14.4943 3.99961C15.2429 4.51293 16.1206 4.78652 17.018 4.78633V8.19961Z" fill="white"/>
</svg>
