<svg width="24" height="18" viewBox="0 0 24 18" fill="none" xmlns="http://www.w3.org/2000/svg">
<path d="M22.6964 3.50695C22.5654 3.02219 22.3101 2.5833 21.9578 2.23695C21.5955 1.87996 21.1514 1.62459 20.6675 1.49495C18.8566 0.999954 11.6013 0.999954 11.6013 0.999954C8.57669 0.964267 5.55278 1.12123 2.54669 1.46995C2.0628 1.60917 1.61959 1.87024 1.25648 2.22995C0.89969 2.58595 0.641262 3.02495 0.506262 3.50595C0.181966 5.3177 0.0244005 7.1573 0.0356904 8.99995C0.0241189 10.841 0.181297 12.68 0.506262 14.494C0.638369 14.973 0.895833 15.41 1.25358 15.763C1.61133 16.116 2.05683 16.371 2.54669 16.506C4.38173 17 11.6013 17 11.6013 17C14.6298 17.0357 17.6576 16.8787 20.6675 16.53C21.1514 16.4003 21.5955 16.145 21.9578 15.788C22.31 15.4417 22.5649 15.0027 22.6954 14.518C23.0282 12.7069 23.19 10.8665 23.1785 9.02295C23.2036 7.17156 23.042 5.32252 22.6964 3.50595V3.50695ZM9.29476 12.424V5.57695L15.3312 9.00095L9.29476 12.424Z" fill="white"/>
</svg>
